<?xml version="1.0" encoding="UTF-8"?>
<!DOCTYPE svg PUBLIC "-//W3C//DTD SVG 1.1//EN" "http://www.w3.org/Graphics/SVG/1.1/DTD/svg11.dtd">
<!-- Creator: CorelDRAW 2021 (64 Bit) -->
<svg xmlns="http://www.w3.org/2000/svg" xml:space="preserve" width="16.9332mm" height="16.9332mm" version="1.1" style="shape-rendering:geometricPrecision; text-rendering:geometricPrecision; image-rendering:optimizeQuality; fill-rule:evenodd; clip-rule:evenodd"
viewBox="0 0 1693.32 1693.32"
 xmlns:xlink="http://www.w3.org/1999/xlink"
 xmlns:xodm="http://www.corel.com/coreldraw/odm/2003">
 <defs>
  <style type="text/css">
   <![CDATA[
    .fil1 {fill:#1C7295;fill-rule:nonzero}
    .fil0 {fill:#21285C;fill-rule:nonzero}
   ]]>
  </style>
 </defs>
 <g id="Camada_x0020_1">
  <metadata id="CorelCorpID_0Corel-Layer"/>
  <g id="_2132270701456">
   <polygon class="fil0" points="554.3,1474.78 352.16,1474.78 352.16,631.27 554.3,631.27 "/>
   <polygon class="fil1" points="554.65,544.23 351.81,544.23 351.81,341.38 554.65,341.38 "/>
   <polygon class="fil0" points="1297.97,1474.78 656.59,1474.78 656.59,1289.36 1030.47,816.69 699.15,816.69 699.15,631.27 1272.13,631.27 1272.13,816.69 898.25,1289.36 1297.97,1289.36 "/>
   <polygon class="fil0" points="1597.84,1474.78 1395.7,1474.78 1395.7,631.27 1597.84,631.27 "/>
   <polygon class="fil0" points="1597.84,535.52 1395.7,535.52 1395.7,350.09 1597.84,350.09 "/>
   <polygon class="fil1" points="295.34,388.14 125.74,388.14 125.74,218.54 295.34,218.54 "/>
   <polygon class="fil1" points="242.63,574.53 95.47,574.53 95.47,427.37 242.63,427.37 "/>
  </g>
 </g>
</svg>
